<?xml version="1.0" encoding="utf-8"?>
<!-- Generator: Adobe Illustrator 21.0.0, SVG Export Plug-In . SVG Version: 6.00 Build 0)  -->
<svg version="1.1" id="Layer_1" xmlns="http://www.w3.org/2000/svg" xmlns:xlink="http://www.w3.org/1999/xlink" x="0px" y="0px"
	 viewBox="0 0 32 32" style="enable-background:new 0 0 32 32;" xml:space="preserve">
<style type="text/css">
	.st0{fill:none;stroke:#FFFFFF;stroke-width:2;stroke-linecap:round;stroke-linejoin:round;stroke-miterlimit:10;}
	.st1{fill:#FFFFFF;}
</style>
<g>
	<polyline class="st0" points="649,138 675,138 675,156 661,156 	"/>
	<polyline class="st0" points="653,156 649,156 649,142 	"/>
	<polyline class="st0" points="661,156 653,162 653,156 	"/>
</g>
<g>
	<g>
		<path class="st1" d="M15,3v26c0,0.4,0.2,0.8,0.6,0.9c0.4,0.2,0.8,0.1,1.1-0.2l12-11.8c0.4-0.4,0.4-1,0-1.4c-0.4-0.4-1-0.4-1.4,0
			L17,26.6V3c0-0.5-0.4-1-1-1S15,2.4,15,3z"/>
	</g>
	<g>
		<path class="st1" d="M3,17.2c0,0.3,0.1,0.5,0.3,0.7l8,7.9c0.4,0.4,1,0.4,1.4,0s0.4-1,0-1.4l-8-7.9c-0.4-0.4-1-0.4-1.4,0
			C3.1,16.7,3,17,3,17.2z"/>
	</g>
</g>
</svg>
