<?xml version="1.0" encoding="utf-8"?>
<!-- Generator: Adobe Illustrator 21.0.0, SVG Export Plug-In . SVG Version: 6.00 Build 0)  -->
<svg version="1.1" id="Layer_1" xmlns="http://www.w3.org/2000/svg" xmlns:xlink="http://www.w3.org/1999/xlink" x="0px" y="0px"
	 viewBox="0 0 32 32" style="enable-background:new 0 0 32 32;" xml:space="preserve">
<style type="text/css">
	.st0{fill:none;stroke:#FFFFFF;stroke-width:2;stroke-linecap:round;stroke-linejoin:round;stroke-miterlimit:10;}
	.st1{fill:#FFFFFF;}
</style>
<g>
	<polyline class="st0" points="649,138 675,138 675,156 661,156 	"/>
	<polyline class="st0" points="653,156 649,156 649,142 	"/>
	<polyline class="st0" points="661,156 653,162 653,156 	"/>
</g>
<g>
	<g>
		<path class="st1" d="M29,17H3c-0.4,0-0.8-0.2-0.9-0.6C1.9,16,2,15.6,2.3,15.3l11.8-12c0.4-0.4,1-0.4,1.4,0s0.4,1,0,1.4L5.4,15H29
			c0.5,0,1,0.4,1,1C30,16.6,29.6,17,29,17z"/>
	</g>
	<g>
		<path class="st1" d="M14.8,29c-0.3,0-0.5-0.1-0.7-0.3l-7.9-8c-0.4-0.4-0.4-1,0-1.4s1-0.4,1.4,0l7.9,8c0.4,0.4,0.4,1,0,1.4
			C15.3,28.9,15,29,14.8,29z"/>
	</g>
</g>
</svg>
